<svg width="24" height="24" viewBox="0 0 24 24" fill="none" xmlns="http://www.w3.org/2000/svg">
<path fill-rule="evenodd" clip-rule="evenodd" d="M11.2179 4.54355V2.75637C11.2179 2.33864 11.5494 2 11.9584 2C12.3674 2 12.6989 2.33864 12.6989 2.75637V4.61077L13.3534 3.99042C13.6617 3.69824 14.1454 3.72411 14.4221 4.04758C14.6895 4.36027 14.6625 4.83418 14.3613 5.11304L12.31 7.01215C12.1197 7.18831 11.8297 7.18859 11.6391 7.01278L9.58463 5.11783C9.27957 4.83646 9.25181 4.35719 9.52226 4.04104C9.79762 3.71915 10.2771 3.68839 10.5898 3.97257L11.2179 4.54355ZM3.97131 11.6574V16.7443C3.97131 17.5018 4.39932 18.1943 5.07689 18.5331L11.0769 21.5331C11.64 21.8146 12.3027 21.8146 12.8658 21.5331L18.8658 18.5331C19.5433 18.1943 19.9713 17.5018 19.9713 16.7443V11.6574L14.6422 14.322C13.9655 14.6603 13.1429 14.4419 12.7233 13.8124L11.9713 12.6845L11.2194 13.8124C10.7998 14.4419 9.97708 14.6603 9.3005 14.322L3.97131 11.6574ZM11.9471 9.99597L3.98694 6.0037L2 8.96052L10.0025 12.9829L11.9471 9.99597ZM11.9471 9.99597L13.9691 12.9829L21.9884 9.01814L19.9622 6.02983L11.9471 9.99597Z" fill="#C5970B"/>
</svg>
