<svg width="24" height="28" viewBox="0 0 24 28" fill="none" xmlns="http://www.w3.org/2000/svg">
<path d="M4.5 6.5C4.5 5.26387 4.86656 4.0555 5.55331 3.02769C6.24007 1.99988 7.21619 1.1988 8.35823 0.725756C9.50027 0.252708 10.7569 0.128937 11.9693 0.370095C13.1817 0.611252 14.2953 1.20651 15.1694 2.08059C16.0435 2.95466 16.6388 4.06831 16.8799 5.28069C17.1211 6.49307 16.9973 7.74974 16.5242 8.89178C16.0512 10.0338 15.2501 11.0099 14.2223 11.6967C13.1945 12.3834 11.9861 12.75 10.75 12.75C9.0924 12.75 7.50269 12.0915 6.33058 10.9194C5.15848 9.74732 4.5 8.15761 4.5 6.5ZM5.75 15.25C4.42392 15.25 3.15215 15.7768 2.21447 16.7145C1.27678 17.6521 0.75 18.9239 0.75 20.25V26.5C0.75 26.8315 0.881696 27.1495 1.11612 27.3839C1.35054 27.6183 1.66848 27.75 2 27.75H9.8375C9.61718 27.3702 9.50078 26.9391 9.5 26.5V22.75C9.50279 22.088 9.76802 21.4542 10.2375 20.9875L15.8625 15.35L15.975 15.25H5.75ZM22.2625 16.2375C21.5275 15.5093 20.5347 15.1007 19.5 15.1007C18.4653 15.1007 17.4725 15.5093 16.7375 16.2375L11.1125 21.8625C10.9966 21.9793 10.905 22.1178 10.8428 22.2701C10.7806 22.4224 10.749 22.5855 10.75 22.75V26.5C10.75 26.8315 10.8817 27.1495 11.1161 27.3839C11.3505 27.6183 11.6685 27.75 12 27.75H15.75C15.9145 27.751 16.0776 27.7194 16.2299 27.6572C16.3822 27.595 16.5207 27.5034 16.6375 27.3875L22.2625 21.7625C22.9907 21.0275 23.3993 20.0347 23.3993 19C23.3993 17.9653 22.9907 16.9725 22.2625 16.2375Z" fill="white"/>
</svg>
