<svg width="131" height="131" viewBox="0 0 131 131" fill="none" xmlns="http://www.w3.org/2000/svg">
<g clip-path="url(#clip0_263_1338)">
<path d="M131 0L115.28 52.2285C115.055 52.9776 114.365 53.4904 113.583 53.4904H77.5194H63.4873L130.994 0.00255859C130.997 0 131 0 131 0Z" fill="#FFF7E6"/>
<path d="M130.994 0.00244141L68.5577 55.4617L59.5926 72.965L51.8027 43.8828C51.8025 43.3662 130.26 0.404907 130.994 0.00244141Z" fill="#EADBC3"/>
<path d="M20.1952 40.4448L130.994 0.00244141C130.26 0.404907 51.8025 43.3662 51.8025 43.8828H20.8031C18.8205 43.8828 18.3328 41.1243 20.1952 40.4448Z" fill="#FFF7E6"/>
<path d="M77.5198 53.4905C77.7925 53.4905 59.5928 72.9652 59.5928 72.9652L63.4877 53.4905H77.5198Z" fill="#DDC5A2"/>
<path d="M103.367 67.7893C102.45 67.227 101.251 67.5135 100.689 68.431L92.0478 82.5145C91.9994 82.2886 91.949 82.0632 91.8955 81.8386C91.2759 79.2513 89.5928 77.0143 87.2778 75.701C84.9293 74.3688 82.2105 74.0817 79.622 74.893C75.0644 76.322 72.2231 80.953 73.0134 85.667C73.7999 90.3361 77.7964 93.7253 82.516 93.7253C83.279 93.7253 84.0379 93.6352 84.7686 93.4589C86.1052 93.1393 87.3786 92.6389 88.5625 91.979C88.0925 95.3858 86.9222 98.6705 85.1089 101.627L82.8369 105.332C82.2747 106.249 82.5621 107.448 83.4793 108.01C83.7968 108.205 84.1481 108.297 84.4953 108.297C85.1501 108.297 85.7897 107.967 86.1571 107.368L88.4292 103.662C91.215 99.1203 92.6887 93.9054 92.6915 88.5812C93.1792 88.0045 93.6264 87.3887 94.0245 86.7406L104.009 70.4674C104.571 69.5512 104.284 68.3517 103.367 67.7893ZM83.8577 89.6719C83.422 89.7771 82.9707 89.8303 82.5155 89.8303C79.7044 89.8303 77.3234 87.8072 76.8539 85.0214C76.3836 82.2162 78.0746 79.4598 80.7867 78.6094C81.3644 78.4287 81.9524 78.3389 82.5352 78.3389C83.5141 78.3389 84.4785 78.5915 85.3555 79.0891C86.7553 79.8833 87.7325 81.182 88.107 82.7451C88.4466 84.1661 88.6633 85.6179 88.7521 87.0719C87.3707 88.3394 85.6943 89.2324 83.8577 89.6719Z" fill="#73E1FF"/>
<path d="M46.9483 74.7041C46.1874 73.9437 44.9546 73.9437 44.194 74.7041L27.1691 91.729C27.2308 90.8419 27.2645 89.9528 27.2645 89.0644C27.2645 85.659 25.8363 82.3727 23.3463 80.0477C20.82 77.6897 17.5217 76.5225 14.0589 76.7609C7.9623 77.1816 3.04776 82.0961 2.62764 88.1853C2.60717 88.4675 2.59668 88.7625 2.59668 89.0619C2.59668 95.8641 8.12988 101.398 14.9306 101.398C17.1858 101.398 19.4012 101.008 21.4954 100.259C21.2659 100.925 21.0185 101.584 20.7496 102.232C19.0116 106.429 16.5024 110.186 13.2911 113.396L9.1395 117.548C8.37884 118.309 8.37884 119.542 9.1395 120.303C9.51997 120.683 10.0184 120.873 10.5168 120.873C11.0152 120.873 11.5136 120.683 11.8941 120.303L16.0462 116.151C19.6208 112.576 22.414 108.395 24.3485 103.724C25.145 101.804 25.7872 99.8016 26.2644 97.7608C27.1397 97.1355 27.9648 96.4426 28.7204 95.6868L46.9488 77.4584C47.7087 76.6978 47.7087 75.465 46.9483 74.7041ZM22.7857 95.3819C20.4022 96.7722 17.7031 97.5034 14.9309 97.5034C10.2776 97.5034 6.49188 93.7165 6.49188 89.0619C6.49188 88.8564 6.49853 88.6569 6.51311 88.4614C6.80044 84.2937 10.1601 80.9345 14.327 80.6469C14.5305 80.6329 14.7323 80.626 14.9334 80.626C17.0837 80.626 19.1083 81.4201 20.6885 82.8952C22.4176 84.5091 23.3696 86.7006 23.3696 89.0647C23.3699 91.1801 23.1736 93.3015 22.7857 95.3819Z" fill="#73E1FF"/>
<path d="M4.94604 123.041L0.53171 127.715C-0.206955 128.497 -0.171646 129.73 0.610514 130.468C0.986883 130.824 1.46739 131 1.94738 131C2.46447 131 2.98054 130.795 3.3633 130.39L7.77763 125.716C8.5163 124.934 8.48099 123.701 7.69883 122.963C6.91744 122.224 5.68445 122.259 4.94604 123.041Z" fill="#73E1FF"/>
<path d="M56.8221 97.8609C55.9437 97.2392 54.7287 97.448 54.1077 98.3264L46.5775 108.972C45.9563 109.85 46.1646 111.066 47.0429 111.687C47.3845 111.929 47.777 112.044 48.1656 112.044C48.7766 112.044 49.3776 111.758 49.7573 111.221L57.2875 100.575C57.9085 99.6972 57.7002 98.4819 56.8221 97.8609Z" fill="#73E1FF"/>
</g>
<defs>
<clipPath id="clip0_263_1338">
<rect width="131" height="131" fill="white"/>
</clipPath>
</defs>
</svg>
