<svg width="197" height="197" viewBox="0 0 197 197" fill="none" xmlns="http://www.w3.org/2000/svg">
<g clip-path="url(#clip0_263_1367)">
<path d="M0.00038147 0L23.6392 78.5421C23.9782 79.6686 25.0155 80.4397 26.1921 80.4397H80.4247H101.526L0.00805664 0.00384765C0.00421143 0 0.00038147 0 0.00038147 0Z" fill="#FFF7E6"/>
<path d="M0.00791168 0.00390625L93.9013 83.4044L107.383 109.726L119.098 65.9919C119.098 65.215 1.11295 0.609141 0.00791168 0.00390625Z" fill="#EADBC3"/>
<path d="M166.63 60.8218L0.00830078 0.00390625C1.11336 0.609141 119.098 65.215 119.098 65.9919H165.716C168.697 65.9919 169.431 61.8437 166.63 60.8218Z" fill="#FFF7E6"/>
<path d="M80.4239 80.4395C80.0137 80.4395 107.383 109.726 107.383 109.726L101.526 80.4395H80.4239Z" fill="#DDC5A2"/>
<path d="M41.5557 101.943C42.9336 101.097 44.7374 101.528 45.5831 102.908L58.5773 124.087C58.6501 123.747 58.7259 123.408 58.8063 123.07C59.7382 119.179 62.2692 115.815 65.7505 113.84C69.2823 111.837 73.3708 111.405 77.2634 112.625C84.1173 114.774 88.3901 121.738 87.2015 128.827C86.0188 135.849 80.0087 140.946 72.9114 140.946C71.764 140.946 70.6228 140.81 69.5239 140.545C67.5139 140.064 65.5989 139.312 63.8186 138.32C64.5254 143.443 66.2853 148.382 69.0122 152.828L72.4289 158.4C73.2742 159.779 72.8421 161.582 71.4627 162.427C70.9852 162.72 70.457 162.859 69.9348 162.859C68.9502 162.859 67.9883 162.363 67.4358 161.461L64.0191 155.889C59.8297 149.059 57.6135 141.216 57.6093 133.21C56.8759 132.343 56.2033 131.416 55.6046 130.442L40.5904 105.97C39.745 104.592 40.1767 102.788 41.5557 101.943ZM70.8937 134.85C71.5489 135.008 72.2276 135.088 72.9121 135.088C77.1396 135.088 80.7202 132.046 81.4262 127.857C82.1334 123.638 79.5905 119.493 75.512 118.214C74.6432 117.942 73.759 117.807 72.8825 117.807C71.4104 117.807 69.9602 118.187 68.6412 118.935C66.5362 120.13 65.0668 122.083 64.5035 124.433C63.9929 126.57 63.667 128.753 63.5335 130.94C65.6108 132.846 68.1318 134.189 70.8937 134.85Z" fill="#73E1FF"/>
<path d="M126.399 112.341C127.543 111.198 129.397 111.198 130.541 112.341L156.143 137.943C156.051 136.609 156 135.272 156 133.936C156 128.815 158.148 123.873 161.892 120.377C165.691 116.831 170.651 115.076 175.859 115.434C185.027 116.067 192.417 123.457 193.049 132.614C193.08 133.039 193.096 133.482 193.096 133.933C193.096 144.162 184.775 152.484 174.548 152.484C171.156 152.484 167.825 151.898 164.675 150.77C165.021 151.773 165.393 152.764 165.797 153.738C168.411 160.05 172.184 165.699 177.013 170.527L183.256 176.771C184.4 177.915 184.4 179.769 183.256 180.913C182.684 181.485 181.935 181.771 181.185 181.771C180.436 181.771 179.686 181.485 179.114 180.913L172.87 174.669C167.495 169.294 163.294 163.005 160.385 155.981C159.187 153.094 158.221 150.083 157.504 147.014C156.188 146.074 154.947 145.032 153.81 143.895L126.398 116.483C125.255 115.339 125.255 113.485 126.399 112.341ZM162.735 143.437C166.32 145.527 170.378 146.627 174.547 146.627C181.545 146.627 187.238 140.932 187.238 133.933C187.238 133.624 187.228 133.323 187.206 133.029C186.774 126.762 181.722 121.71 175.455 121.278C175.149 121.257 174.846 121.246 174.543 121.246C171.31 121.246 168.265 122.441 165.889 124.659C163.289 127.086 161.857 130.382 161.857 133.937C161.857 137.118 162.152 140.308 162.735 143.437Z" fill="#73E1FF"/>
<path d="M189.562 185.031L196.2 192.06C197.311 193.236 197.258 195.09 196.082 196.2C195.516 196.735 194.793 197 194.072 197C193.294 197 192.518 196.692 191.942 196.082L185.304 189.053C184.193 187.877 184.246 186.024 185.422 184.913C186.597 183.803 188.452 183.855 189.562 185.031Z" fill="#73E1FF"/>
<path d="M111.55 147.165C112.871 146.23 114.698 146.544 115.632 147.865L126.956 163.874C127.89 165.195 127.577 167.023 126.256 167.956C125.743 168.32 125.152 168.494 124.568 168.494C123.649 168.494 122.745 168.063 122.174 167.257L110.85 151.246C109.916 149.926 110.23 148.099 111.55 147.165Z" fill="#73E1FF"/>
</g>
<defs>
<clipPath id="clip0_263_1367">
<rect width="197" height="197" fill="white" transform="matrix(-1 0 0 1 197 0)"/>
</clipPath>
</defs>
</svg>
