<svg width="24" height="24" viewBox="0 0 24 24" fill="none" xmlns="http://www.w3.org/2000/svg">
<g clip-path="url(#clip0_263_1765)">
<path d="M16.5 12C16.5 12.1918 16.4267 12.3838 16.2803 12.5302L10.2802 18.5302C9.98719 18.8233 9.51262 18.8233 9.21975 18.5302C8.92687 18.2372 8.92669 17.7626 9.21975 17.4698L14.6895 12L9.21975 6.53025C8.92669 6.23719 8.92669 5.76262 9.21975 5.46975C9.51281 5.17687 9.98737 5.17669 10.2802 5.46975L16.2803 11.4697C16.4267 11.6162 16.5 11.8082 16.5 12ZM12 -5.24537e-07C5.38331 -2.35312e-07 -8.13761e-07 5.38331 -5.24537e-07 12C-2.35312e-07 18.6167 5.38331 24 12 24C18.6167 24 24 18.6167 24 12C24 5.38331 18.6167 -8.13761e-07 12 -5.24537e-07ZM12 1.5C17.7898 1.5 22.5 6.21019 22.5 12C22.5 17.7898 17.7898 22.5 12 22.5C6.21019 22.5 1.5 17.7898 1.5 12C1.5 6.21019 6.21019 1.5 12 1.5Z" fill="#118ABD"/>
</g>
<defs>
<clipPath id="clip0_263_1765">
<rect width="24" height="24" fill="white" transform="translate(0 24) rotate(-90)"/>
</clipPath>
</defs>
</svg>
