<svg width="12" height="12" viewBox="0 0 12 12" fill="none" xmlns="http://www.w3.org/2000/svg">
<path d="M10.2661 4.36555L3.10504 0.737768C2.83068 0.581929 2.52056 0.5 2.20504 0.5C1.88951 0.5 1.57939 0.581929 1.30504 0.737768C1.03682 0.920609 0.821615 1.171 0.681148 1.46363C0.540681 1.75627 0.479932 2.0808 0.505037 2.40443V9.61554C0.48107 9.93904 0.542325 10.2632 0.682695 10.5556C0.823065 10.848 1.03764 11.0986 1.30504 11.2822C1.55298 11.4316 1.83781 11.5086 2.12726 11.5044C2.46824 11.4986 2.80311 11.413 3.10504 11.2544L10.2661 7.63777C11.3273 7.08221 11.4828 6.39332 11.4828 6.01555C11.4828 5.63777 11.3273 4.90443 10.2661 4.36555Z" fill="#C5970B"/>
</svg>
