<svg width="25" height="24" viewBox="0 0 25 24" fill="none" xmlns="http://www.w3.org/2000/svg">
<g clip-path="url(#clip0_263_1888)">
<path fill-rule="evenodd" clip-rule="evenodd" d="M12.5 24C5.87364 24 0.5 18.6264 0.5 12C0.5 5.37364 5.87364 0 12.5 0C19.1264 0 24.5 5.37364 24.5 12C24.5 18.6264 19.1264 24 12.5 24ZM12.5 4.19471C15.7827 4.19471 18.4438 6.85578 18.4438 10.1385C18.4438 13.4211 12.5 19.8052 12.5 19.8052C12.5 19.8052 6.55622 13.4211 6.55622 10.1385C6.55622 6.85578 9.21729 4.19471 12.5 4.19471ZM12.5 7.77695C13.7446 7.77695 14.7539 8.78627 14.7539 10.031C14.7539 11.2756 13.7446 12.2849 12.5 12.2849C11.2554 12.2849 10.2461 11.2756 10.2461 10.031C10.2461 8.78627 11.2554 7.77695 12.5 7.77695Z" fill="#C5970B"/>
</g>
<defs>
<clipPath id="clip0_263_1888">
<rect width="24" height="24" fill="white" transform="translate(0.5)"/>
</clipPath>
</defs>
</svg>
