<svg width="24" height="24" viewBox="0 0 24 24" fill="none" xmlns="http://www.w3.org/2000/svg">
<g clip-path="url(#clip0_263_998)">
<path d="M12 24C18.6274 24 24 18.6274 24 12C24 5.37258 18.6274 0 12 0C5.37258 0 0 5.37258 0 12C0 18.6274 5.37258 24 12 24Z" fill="#334C8C"/>
<path d="M15.0408 10.8647L14.8419 12.5353C14.8333 12.6129 14.7963 12.6845 14.738 12.7364C14.6796 12.7883 14.6042 12.8168 14.5261 12.8163H12.7893V17.7742C12.7897 17.8334 12.7667 17.8904 12.7253 17.9327C12.6838 17.975 12.6274 17.9992 12.5682 18H10.7982C10.7688 17.9996 10.7397 17.9934 10.7126 17.9817C10.6856 17.9701 10.6611 17.9532 10.6406 17.9321C10.62 17.911 10.6039 17.886 10.593 17.8587C10.5821 17.8313 10.5767 17.8021 10.5771 17.7726L10.5866 12.8163H9.27136C9.1876 12.8163 9.10728 12.783 9.04806 12.7238C8.98884 12.6646 8.95557 12.5843 8.95557 12.5005V10.83C8.95557 10.7462 8.98884 10.6659 9.04806 10.6067C9.10728 10.5475 9.1876 10.5142 9.27136 10.5142H10.5787V8.89421C10.5787 7.02 11.6935 6 13.3261 6H14.6635C14.7472 6 14.8275 6.03327 14.8868 6.09249C14.946 6.15171 14.9793 6.23204 14.9793 6.31579V7.72263C14.9793 7.80638 14.946 7.88671 14.8868 7.94593C14.8275 8.00515 14.7472 8.03842 14.6635 8.03842H13.844C12.9566 8.05263 12.7893 8.47737 12.7893 9.1121V10.5095H14.7329C14.7773 10.5102 14.821 10.5203 14.8612 10.5391C14.9013 10.5579 14.9371 10.5849 14.9662 10.6184C14.9952 10.6519 15.0169 10.6912 15.0297 10.7336C15.0426 10.7761 15.0464 10.8207 15.0408 10.8647Z" fill="white"/>
</g>
<defs>
<clipPath id="clip0_263_998">
<rect width="24" height="24" fill="white"/>
</clipPath>
</defs>
</svg>
