<svg width="24" height="24" viewBox="0 0 24 24" fill="none" xmlns="http://www.w3.org/2000/svg">
<g clip-path="url(#clip0_263_977)">
<path d="M12 24C18.6274 24 24 18.6274 24 12C24 5.37258 18.6274 0 12 0C5.37258 0 0 5.37258 0 12C0 18.6274 5.37258 24 12 24Z" fill="#00A6DE"/>
<path d="M17.9764 8.36804C17.6928 8.79411 17.3462 9.17475 16.9485 9.49698C16.8984 9.53877 16.8582 9.5912 16.8309 9.65047C16.8036 9.70974 16.7898 9.77436 16.7906 9.83962V9.87909C16.786 10.7348 16.6288 11.5828 16.3264 12.3833C16.0148 13.2235 15.5519 13.9995 14.9606 14.6728C14.166 15.5774 13.1438 16.2528 12.0001 16.6291C11.2486 16.873 10.4628 16.9951 9.67272 16.9907C8.41925 16.9905 7.18813 16.6588 6.1043 16.0291C6.06546 16.007 6.03489 15.9729 6.01722 15.9318C5.99955 15.8908 5.99576 15.8451 6.00641 15.8017C6.01733 15.759 6.04224 15.7212 6.07715 15.6943C6.11206 15.6674 6.15497 15.653 6.19904 15.6533H6.49904C7.45161 15.6556 8.38311 15.373 9.17377 14.8417C8.70258 14.7654 8.26159 14.5605 7.89941 14.2496C7.53723 13.9387 7.26791 13.5338 7.12114 13.0796C7.11363 13.0569 7.11226 13.0325 7.11719 13.0091C7.12212 12.9857 7.13316 12.9639 7.14919 12.9461C7.16523 12.9283 7.18568 12.9151 7.20849 12.9078C7.23129 12.9004 7.25563 12.8992 7.27904 12.9044C7.42273 12.9314 7.56861 12.9451 7.71483 12.9454H7.77009C7.31468 12.7362 6.92963 12.3995 6.66147 11.9761C6.39332 11.5528 6.25354 11.0608 6.25904 10.5596C6.2592 10.5362 6.26543 10.5132 6.27713 10.4928C6.28882 10.4725 6.30558 10.4556 6.32577 10.4436C6.34597 10.4317 6.3689 10.4252 6.39235 10.4248C6.41579 10.4244 6.43895 10.43 6.45956 10.4412C6.6448 10.5446 6.84355 10.6217 7.05009 10.6701C6.64186 10.2662 6.37927 9.73825 6.30354 9.16899C6.22781 8.59974 6.34323 8.02145 6.63167 7.52488C6.64258 7.50581 6.65796 7.48967 6.67648 7.47785C6.695 7.46603 6.71612 7.45888 6.73801 7.45701C6.75991 7.45515 6.78193 7.45863 6.80218 7.46715C6.82244 7.47567 6.84032 7.48898 6.8543 7.50593C7.42459 8.21204 8.13087 8.79642 8.93127 9.22442C9.73166 9.65242 10.6099 9.91531 11.5138 9.99751H11.5264C11.5397 9.99713 11.5527 9.99404 11.5648 9.98845C11.5768 9.98285 11.5876 9.97486 11.5965 9.96496C11.6054 9.95507 11.6121 9.94347 11.6164 9.93088C11.6206 9.91829 11.6222 9.90496 11.6211 9.89172C11.5859 9.57485 11.6062 9.25425 11.6811 8.94435C11.783 8.52311 11.9921 8.13539 12.2882 7.81887C12.5842 7.50236 12.9571 7.26781 13.3706 7.13804C13.6359 7.05516 13.9121 7.01258 14.1901 7.01172C14.8203 7.01099 15.429 7.24067 15.9017 7.65751C15.9629 7.71229 16.0421 7.74264 16.1243 7.74277C16.151 7.7422 16.1775 7.73849 16.2032 7.73172C16.6474 7.6195 17.0728 7.44346 17.4664 7.20909C17.49 7.19456 17.5174 7.18767 17.545 7.18936C17.5727 7.19104 17.5991 7.20123 17.6207 7.21851C17.6423 7.2358 17.6581 7.25935 17.6658 7.28593C17.6735 7.3125 17.6728 7.34082 17.6638 7.36698C17.5324 7.78033 17.2982 8.15356 16.9832 8.45172C17.267 8.38407 17.544 8.29052 17.8106 8.17225C17.8369 8.16209 17.8658 8.16038 17.8931 8.16735C17.9204 8.17433 17.9449 8.18965 17.9631 8.21118C17.9814 8.2327 17.9924 8.25938 17.9948 8.28749C17.9972 8.3156 17.9908 8.34375 17.9764 8.36804Z" fill="white"/>
</g>
<defs>
<clipPath id="clip0_263_977">
<rect width="24" height="24" fill="white"/>
</clipPath>
</defs>
</svg>
