<svg width="19" height="22" viewBox="0 0 19 22" fill="none" xmlns="http://www.w3.org/2000/svg">
<path d="M3.5 5C3.5 4.0111 3.79324 3.0444 4.34265 2.22215C4.89206 1.39991 5.67295 0.759043 6.58658 0.380605C7.50021 0.00216642 8.50555 -0.0968503 9.47545 0.0960759C10.4454 0.289002 11.3363 0.765206 12.0355 1.46447C12.7348 2.16373 13.211 3.05465 13.4039 4.02455C13.5969 4.99446 13.4978 5.99979 13.1194 6.91342C12.741 7.82705 12.1001 8.60794 11.2779 9.15735C10.4556 9.70676 9.48891 10 8.5 10C7.17392 10 5.90215 9.47322 4.96447 8.53554C4.02678 7.59785 3.5 6.32609 3.5 5ZM4.5 12C3.43913 12 2.42172 12.4214 1.67157 13.1716C0.921427 13.9217 0.5 14.9391 0.5 16V21C0.5 21.2652 0.605357 21.5196 0.792893 21.7071C0.98043 21.8946 1.23478 22 1.5 22H7.77C7.59375 21.6962 7.50062 21.3513 7.5 21V18C7.50223 17.4704 7.71441 16.9634 8.09 16.59L12.59 12.08L12.68 12H4.5ZM17.71 12.79C17.122 12.2074 16.3277 11.8806 15.5 11.8806C14.6723 11.8806 13.878 12.2074 13.29 12.79L8.79 17.29C8.69732 17.3834 8.62399 17.4943 8.57423 17.6161C8.52446 17.7379 8.49924 17.8684 8.5 18V21C8.5 21.2652 8.60536 21.5196 8.79289 21.7071C8.98043 21.8946 9.23478 22 9.5 22H12.5C12.6316 22.0008 12.7621 21.9755 12.8839 21.9258C13.0057 21.876 13.1166 21.8027 13.21 21.71L17.71 17.21C18.2926 16.622 18.6194 15.8277 18.6194 15C18.6194 14.1723 18.2926 13.378 17.71 12.79Z" fill="white"/>
</svg>
