<svg width="25" height="24" viewBox="0 0 25 24" fill="none" xmlns="http://www.w3.org/2000/svg">
<g clip-path="url(#clip0_402_22)">
<path d="M18.7466 15.8765C17.9625 15.1024 16.9837 15.1024 16.2046 15.8765C15.6103 16.4658 15.016 17.0551 14.4316 17.6544C14.2718 17.8192 14.137 17.8542 13.9422 17.7443C13.5577 17.5346 13.1481 17.3648 12.7786 17.135C11.0556 16.0513 9.61227 14.6579 8.33376 13.0897C7.6995 12.3107 7.13516 11.4766 6.74062 10.5377C6.66072 10.3479 6.6757 10.2231 6.83052 10.0683C7.42482 9.49394 8.00415 8.90463 8.58847 8.31531C9.40252 7.49627 9.40252 6.53739 8.58347 5.71335C8.11901 5.2439 7.65456 4.78443 7.1901 4.31498C6.71066 3.83554 6.23621 3.3511 5.75178 2.87666C4.96769 2.11255 3.98883 2.11255 3.20974 2.88165C2.61044 3.47096 2.03611 4.07526 1.42682 4.65458C0.862479 5.18896 0.577811 5.8432 0.517881 6.60731C0.422992 7.85085 0.727636 9.02449 1.15714 10.1682C2.03611 12.5354 3.37455 14.6379 4.99765 16.5657C7.1901 19.1726 9.80704 21.2352 12.8685 22.7235C14.2469 23.3927 15.6752 23.9071 17.2284 23.992C18.2971 24.052 19.2261 23.7823 19.9702 22.9482C20.4796 22.3789 21.0539 21.8595 21.5933 21.3151C22.3924 20.5061 22.3974 19.5272 21.6033 18.7282C20.6544 17.7743 19.7005 16.8254 18.7466 15.8765Z" fill="white"/>
<path d="M17.7926 11.8961L19.6354 11.5815C19.3458 9.88849 18.5467 8.35528 17.3331 7.1367C16.0496 5.8532 14.4265 5.04414 12.6386 4.79443L12.3789 6.64727C13.7623 6.84205 15.0208 7.46632 16.0147 8.46016C16.9536 9.39906 17.5679 10.5877 17.7926 11.8961Z" fill="white"/>
<path d="M20.6741 3.88547C18.5466 1.75795 15.8548 0.414516 12.8832 0L12.6235 1.85284C15.1905 2.21242 17.5178 3.37606 19.3557 5.20892C21.0986 6.95189 22.2423 9.15432 22.6568 11.5765L24.4997 11.2619C24.0152 8.45514 22.6918 5.90811 20.6741 3.88547Z" fill="white"/>
</g>
<defs>
<clipPath id="clip0_402_22">
<rect width="24" height="24" fill="white" transform="translate(0.5)"/>
</clipPath>
</defs>
</svg>
