<svg width="24" height="24" viewBox="0 0 24 24" fill="none" xmlns="http://www.w3.org/2000/svg">
<path d="M9.68913 12.0051L18.6675 3.02634C18.9147 2.77971 19.0507 2.44995 19.0507 2.09834C19.0507 1.74654 18.9147 1.41698 18.6675 1.16995L17.8807 0.38361C17.6339 0.136195 17.304 0 16.9523 0C16.6007 0 16.2712 0.136195 16.0242 0.38361L5.33401 11.0736C5.08601 11.3214 4.9502 11.6525 4.95118 12.0045C4.9502 12.358 5.08581 12.6888 5.33401 12.9368L16.0142 23.6164C16.2612 23.8638 16.5908 24 16.9426 24C17.2942 24 17.6238 23.8638 17.871 23.6164L18.6575 22.83C19.1693 22.3182 19.1693 21.4851 18.6575 20.9735L9.68913 12.0051Z" fill="#118ABD"/>
</svg>
