<svg width="50" height="50" viewBox="0 0 50 50" fill="none" xmlns="http://www.w3.org/2000/svg">
<path d="M9.792 13.1249C7.70866 15.4166 6.45866 17.9166 6.45866 22.0833C6.45866 29.3749 11.667 35.8333 18.9587 39.1666L20.8337 36.4583C13.9587 32.7083 12.5003 27.9166 12.0837 24.7916C13.1253 25.4166 14.5837 25.6249 16.042 25.4166C19.792 24.9999 22.7087 22.0833 22.7087 18.1249C22.7087 16.2499 21.8753 14.3749 20.6253 12.9166C19.167 11.4583 17.5003 10.8333 15.417 10.8333C13.1253 10.8333 11.042 11.8749 9.792 13.1249ZM30.6253 13.1249C28.542 15.4166 27.292 17.9166 27.292 22.0833C27.292 29.3749 32.5003 35.8333 39.792 39.1666L41.667 36.4583C34.792 32.7083 33.3337 27.9166 32.917 24.7916C33.9587 25.4166 35.417 25.6249 36.8753 25.4166C40.6253 24.9999 43.542 21.8749 43.542 18.1249C43.542 16.2499 42.7087 14.3749 41.4587 12.9166C40.0003 11.4583 38.3337 10.8333 36.2503 10.8333C33.9587 10.8333 31.8753 11.8749 30.6253 13.1249Z" fill="#C5970B"/>
</svg>
