<svg width="60" height="61" viewBox="0 0 60 61" fill="none" xmlns="http://www.w3.org/2000/svg">
<g clip-path="url(#clip0_263_641)">
<path d="M29.9996 27.1455C32.059 27.1455 33.734 25.4701 33.734 23.4106C33.734 21.3516 32.059 19.6761 29.9996 19.6761C27.9405 19.6761 26.2651 21.3516 26.2651 23.4106C26.2651 25.4701 27.9405 27.1455 29.9996 27.1455Z" fill="#64C0E7"/>
<path d="M29.9999 30.7137C26.021 30.7137 22.7837 33.951 22.7837 37.9295V41.3242H37.2156V37.9295C37.2156 33.951 33.9787 30.7137 29.9999 30.7137V30.7137Z" fill="#64C0E7"/>
<path d="M51.1321 32.2843C50.1465 32.2843 49.3477 31.4855 49.3477 30.4999C49.3477 29.5148 50.1465 28.716 51.1321 28.716H59.9999C59.5719 21.3593 56.5049 14.5025 51.2511 9.24876C45.9974 3.99502 39.1405 0.928008 31.7838 0.5V9.36778C31.7838 10.3533 30.9855 11.1521 29.9999 11.1521C29.0144 11.1521 28.2156 10.3533 28.2156 9.36778V0.5C20.8593 0.928008 14.0025 3.99502 8.74876 9.24876C3.49502 14.5025 0.428008 21.3593 0 28.716H8.86778C9.85289 28.716 10.6517 29.5148 10.6517 30.4999C10.6517 31.4855 9.85289 32.2843 8.86778 32.2843H0C0.428008 39.6405 3.49502 46.4974 8.74876 51.7511C14.0025 57.0049 20.8593 60.0719 28.2156 60.4999V51.6321C28.2156 50.647 29.0144 49.8477 29.9999 49.8477C30.9855 49.8477 31.7843 50.647 31.7843 51.6321V60.4999C39.1405 60.0719 45.9974 57.0053 51.2511 51.7511C56.5049 46.4974 59.5719 39.6405 59.9999 32.2843H51.1321ZM20.9999 44.8925C20.0143 44.8925 19.2155 44.0937 19.2155 43.1081V37.9294C19.2155 33.8796 21.4599 30.3448 24.77 28.5013C23.4883 27.1848 22.6963 25.389 22.6963 23.4106C22.6963 19.3841 25.9725 16.1079 29.9995 16.1079C34.0264 16.1079 37.3022 19.3841 37.3022 23.4106C37.3022 25.389 36.5107 27.1848 35.229 28.5009C38.5395 30.3443 40.7839 33.8796 40.7839 37.9294V43.1081C40.7839 44.0937 39.9851 44.8925 39 44.8925H20.9999Z" fill="#64C0E7"/>
</g>
<defs>
<clipPath id="clip0_263_641">
<rect width="60" height="60" fill="white" transform="translate(0 0.5)"/>
</clipPath>
</defs>
</svg>
