<svg width="60" height="61" viewBox="0 0 60 61" fill="none" xmlns="http://www.w3.org/2000/svg">
<path d="M20.625 17.375C16.4896 17.375 13.125 20.7386 13.125 24.875C13.125 29.0114 16.4896 32.375 20.625 32.375C24.7604 32.375 28.125 29.0114 28.125 24.875C28.125 20.7386 24.7604 17.375 20.625 17.375ZM17.8125 30.2528V19.4972L25.8801 24.875L17.8125 30.2528ZM50.625 4.25H9.375C5.23956 4.25 1.875 7.61365 1.875 11.75V38C1.875 42.1364 5.23956 45.5 9.375 45.5H50.625C54.7604 45.5 58.125 42.1364 58.125 38V11.75C58.125 7.61365 54.7604 4.25 50.625 4.25V4.25ZM20.625 36.125C14.4214 36.125 9.375 31.0786 9.375 24.875C9.375 18.6714 14.4214 13.625 20.625 13.625C26.8286 13.625 31.875 18.6714 31.875 24.875C31.875 31.0786 26.8286 36.125 20.625 36.125ZM50.625 34.25H35.625V30.5H50.625V34.25ZM50.625 26.75H35.625V23H50.625V26.75ZM50.625 19.25H35.625V15.5H50.625V19.25ZM35.625 53V49.25H24.375V53H16.875V56.75H43.125V53H35.625Z" fill="#64C0E7"/>
</svg>
