<svg width="60" height="60" viewBox="0 0 60 60" fill="none" xmlns="http://www.w3.org/2000/svg">
<path fill-rule="evenodd" clip-rule="evenodd" d="M46.535 45.2842H49.7404V46.2747H46.535V45.2842ZM46.535 43.2971H51.1616V44.2876H46.535V43.2971ZM46.535 41.316H51.1616V42.3066H46.535V41.316ZM44.5294 37.9815V50.9014H53.1427V37.9815H44.5294ZM34.6364 37.9815V50.9014H43.2497V37.9815H34.6364ZM32.6554 36.0313H55.1483V52.8825H46.535C46.5334 53.1457 46.4277 53.3977 46.241 53.5832C46.0542 53.7688 45.8017 53.873 45.5384 53.873H42.2345C41.9761 53.8666 41.7304 53.7595 41.55 53.5744C41.3695 53.3893 41.2685 53.141 41.2686 52.8825H32.6554V36.0313ZM33.2706 28.6484C36.0233 28.6584 38.7596 29.073 41.3917 29.8789C44.6656 30.7429 47.7523 32.2028 50.4972 34.1855H30.8097V48.3359H14.9919C16.0376 47.7996 16.8749 46.9303 17.3718 45.8653C17.8686 44.8003 17.9968 43.6002 17.736 42.4544C17.4799 41.4898 16.9526 40.6188 16.2165 39.9449C15.4805 39.2709 14.5665 38.8222 13.5832 38.652V38.4922C13.599 37.731 13.7839 36.9829 14.1244 36.3019C14.4649 35.621 14.9525 35.0242 15.5519 34.5548C18.4633 32.4641 21.7087 30.883 25.1496 29.8789C27.7899 29.1097 30.5209 28.6959 33.2706 28.6484ZM5.42193 22.6283C5.57698 22.5769 5.74607 22.5893 5.89202 22.6626C6.03797 22.7359 6.14883 22.8642 6.20024 23.0192L11.7743 39.8396C12.2946 39.7205 12.8334 39.7068 13.3591 39.7992C13.8848 39.8916 14.3866 40.0883 14.8351 40.3776C15.2836 40.667 15.6696 41.0432 15.9705 41.484C16.2713 41.9249 16.4809 42.4215 16.5868 42.9446C16.6928 43.4677 16.6929 44.0068 16.5873 44.5299C16.4817 45.0531 16.2725 45.5499 15.9719 45.9909C15.6713 46.432 15.2855 46.8084 14.8372 47.0981C14.3889 47.3877 13.8872 47.5847 13.3616 47.6774C11.0545 48.2498 9.78094 48.5699 8.80886 44.6938C7.96596 41.2976 8.83346 40.6271 10.6053 40.1288L5.03129 23.4065C5.00584 23.3298 4.99576 23.2488 5.00162 23.1681C5.00748 23.0875 5.02917 23.0087 5.06545 22.9365C5.10172 22.8642 5.15188 22.7998 5.21305 22.7469C5.27423 22.694 5.34517 22.6537 5.42193 22.6283ZM33.2706 6.5C35.2175 6.5 37.1207 7.07733 38.7395 8.15897C40.3583 9.24062 41.62 10.778 42.365 12.5767C43.1101 14.3754 43.305 16.3547 42.9252 18.2642C42.5454 20.1737 41.6079 21.9277 40.2312 23.3043C38.8545 24.681 37.1005 25.6185 35.191 25.9984C33.2815 26.3782 31.3023 26.1832 29.5036 25.4382C27.7048 24.6931 26.1675 23.4314 25.0858 21.8126C24.0042 20.1938 23.4268 18.2907 23.4268 16.3438C23.4268 13.733 24.464 11.2292 26.31 9.38317C28.1561 7.53711 30.6599 6.5 33.2706 6.5Z" fill="#64C0E7"/>
</svg>
