<svg width="60" height="61" viewBox="0 0 60 61" fill="none" xmlns="http://www.w3.org/2000/svg">
<g clip-path="url(#clip0_263_655)">
<path d="M51.2133 9.28672C45.547 3.62047 38.0133 0.5 30 0.5C21.9867 0.5 14.453 3.62047 8.78672 9.28672C3.12047 14.953 0 22.4867 0 30.5C0 38.5133 3.12059 46.0469 8.78672 51.7133C14.4529 57.3796 21.9867 60.5 30 60.5C38.0133 60.5 45.547 57.3795 51.2133 51.7133C56.8795 46.047 60 38.5133 60 30.5C60 22.4867 56.8794 14.9531 51.2133 9.28672ZM30 28.625C34.6525 28.625 38.4375 32.41 38.4375 37.0625C38.4375 40.9153 35.841 44.171 32.3065 45.1769C32.0525 45.2492 31.875 45.4776 31.875 45.7416V47.322C31.875 48.3317 31.0991 49.2004 30.0906 49.2479C29.0138 49.2985 28.125 48.4406 28.125 47.375V45.7413C28.125 45.478 27.9485 45.2495 27.6953 45.1774C24.1759 44.1766 21.5861 40.9454 21.5626 37.1149C21.5564 36.0924 22.3603 35.2176 23.3824 35.1883C24.4431 35.1579 25.3125 36.0086 25.3125 37.0625C25.3125 39.758 27.5997 41.9295 30.335 41.7383C32.6441 41.5769 34.5145 39.7064 34.6758 37.3973C34.8668 34.6618 32.6954 32.375 30 32.375C25.3475 32.375 21.5625 28.59 21.5625 23.9375C21.5625 20.0847 24.159 16.829 27.6935 15.8231C27.9475 15.7508 28.125 15.5224 28.125 15.2584V13.678C28.125 12.6683 28.9009 11.7996 29.9094 11.7521C30.9863 11.7015 31.875 12.5594 31.875 13.625V15.2587C31.875 15.522 32.0515 15.7505 32.3047 15.8226C35.8241 16.8234 38.4139 20.0546 38.4374 23.8851C38.4436 24.9076 37.6397 25.7824 36.6176 25.8117C35.5569 25.8421 34.6875 24.9914 34.6875 23.9375C34.6875 21.242 32.4004 19.0705 29.665 19.2617C27.3559 19.4231 25.4855 21.2936 25.3242 23.6027C25.1332 26.3382 27.3046 28.625 30 28.625Z" fill="#64C0E7"/>
</g>
<defs>
<clipPath id="clip0_263_655">
<rect width="60" height="60" fill="white" transform="translate(0 0.5)"/>
</clipPath>
</defs>
</svg>
