<svg width="24" height="24" viewBox="0 0 24 24" fill="none" xmlns="http://www.w3.org/2000/svg">
<g clip-path="url(#clip0_213_1900)">
<path d="M12 24C18.6274 24 24 18.6274 24 12C24 5.37258 18.6274 0 12 0C5.37258 0 0 5.37258 0 12C0 18.6274 5.37258 24 12 24Z" fill="#1C98D6"/>
<path d="M17.5167 12.9158C17.3286 12.648 17.2308 12.3272 17.2372 12C17.2369 11.1572 17.0334 10.3269 16.6437 9.57958C16.2541 8.83224 15.6898 8.18994 14.999 7.7072C14.3081 7.22446 13.511 6.91552 12.6752 6.80662C11.8395 6.69771 10.9898 6.79205 10.1983 7.08163C9.89477 7.19464 9.56358 7.21009 9.25089 7.12584C8.96719 7.04584 8.67171 7.01592 8.37773 7.03742C7.92309 7.06908 7.48518 7.22171 7.10936 7.4795C6.73353 7.73729 6.43346 8.09087 6.24021 8.50361C6.04697 8.91635 5.96758 9.37325 6.01026 9.82699C6.05295 10.2807 6.21616 10.7148 6.48299 11.0843C6.67083 11.3522 6.76869 11.6729 6.76247 12C6.76272 12.8429 6.96632 13.6732 7.35597 14.4205C7.74562 15.1679 8.30982 15.8102 9.0007 16.2929C9.69157 16.7756 10.4887 17.0846 11.3245 17.1935C12.1602 17.3024 13.0099 17.208 13.8014 16.9185C14.1049 16.8055 14.4361 16.79 14.7488 16.8743C15.1182 16.9792 15.5066 16.9995 15.8849 16.9337C16.2633 16.8679 16.622 16.7177 16.9344 16.4942C17.2467 16.2708 17.5047 15.9798 17.6892 15.6429C17.8736 15.3061 17.9798 14.932 17.9998 14.5485C18.0308 13.9649 17.8603 13.3885 17.5167 12.9158ZM11.9998 11.0132L12.1925 11.0606C13.2472 11.3116 14.8419 11.6922 14.8419 13.4495C14.8606 13.8467 14.7551 14.2399 14.54 14.5743C14.325 14.9088 14.0111 15.168 13.6419 15.3158C13.1174 15.5116 12.5593 15.6012 11.9998 15.5795H11.9256C10.2693 15.5795 9.22404 14.2911 9.17983 14.2358C9.10185 14.1568 9.0414 14.0623 9.00244 13.9583C8.96348 13.8543 8.94688 13.7433 8.95373 13.6325C8.96058 13.5217 8.99072 13.4136 9.04219 13.3153C9.09365 13.2169 9.16529 13.1305 9.25241 13.0617C9.33953 12.9929 9.44018 12.9432 9.5478 12.916C9.65541 12.8887 9.76757 12.8844 9.87694 12.9034C9.98632 12.9225 10.0905 12.9643 10.1825 13.0263C10.2746 13.0883 10.3526 13.169 10.4114 13.2632C10.4114 13.2632 11.043 13.9848 11.9256 14.0116H11.9998C13.004 14.0274 13.2377 13.7179 13.263 13.4543C13.3009 13.1385 13.0372 12.9048 11.9998 12.6411L11.8277 12.5985C10.8219 12.36 9.30141 11.9985 9.30141 10.38C9.30141 9.88426 9.49878 8.29268 11.9967 8.23268H12.1451C13.8109 8.23268 14.7946 9.54478 14.8293 9.60163C14.9334 9.76986 14.9705 9.97103 14.9333 10.1653C14.8961 10.3596 14.7874 10.5329 14.6285 10.6508C14.4697 10.7687 14.2724 10.8227 14.0757 10.8021C13.8789 10.7815 13.6971 10.6878 13.5662 10.5395C13.1912 10.1391 12.689 9.88132 12.1451 9.81005L11.9998 9.78952C11.4156 9.77373 10.8788 9.99478 10.8788 10.3074C10.8788 10.6485 11.0398 10.7779 11.9998 11.0132Z" fill="white"/>
</g>
<defs>
<clipPath id="clip0_213_1900">
<rect width="24" height="24" fill="white"/>
</clipPath>
</defs>
</svg>
