<svg width="24" height="24" viewBox="0 0 24 24" fill="none" xmlns="http://www.w3.org/2000/svg">
<g clip-path="url(#clip0_213_1404)">
<path d="M12 24C18.6274 24 24 18.6274 24 12C24 5.37258 18.6274 0 12 0C5.37258 0 0 5.37258 0 12C0 18.6274 5.37258 24 12 24Z" fill="#007AB9"/>
<path d="M19.1688 12.9661V17.9134H16.3005V13.2976C16.3005 12.1387 15.8863 11.3472 14.8478 11.3472C14.0552 11.3472 13.5844 11.88 13.3765 12.396C13.301 12.5804 13.2815 12.8364 13.2815 13.0951V17.9132H10.413C10.413 17.9132 10.4515 10.0956 10.413 9.28637H13.2817V10.5089C13.276 10.5185 13.2678 10.5279 13.2627 10.5371H13.2817V10.5089C13.6629 9.92233 14.3427 9.08379 15.8669 9.08379C17.754 9.08379 19.1688 10.3168 19.1688 12.9661ZM7.41222 5.12793C6.43101 5.12793 5.78906 5.77202 5.78906 6.61825C5.78906 7.44652 6.4124 8.10921 7.37457 8.10921H7.39318C8.39365 8.10921 9.0157 7.44652 9.0157 6.61825C8.99666 5.77202 8.39365 5.12793 7.41222 5.12793ZM5.95955 17.9134H8.82703V9.28637H5.95955V17.9134Z" fill="white"/>
</g>
<defs>
<clipPath id="clip0_213_1404">
<rect width="24" height="24" fill="white"/>
</clipPath>
</defs>
</svg>
