<svg width="311" height="112" viewBox="0 0 311 112" fill="none" xmlns="http://www.w3.org/2000/svg">
<path d="M269.123 111.331H29.9344C13.9137 111.331 0.882812 100.982 0.882812 88.2649V23.0665C0.882812 10.349 13.9171 0 29.9344 0H269.123C285.143 0 298.174 10.349 298.174 23.0665V50.2624C298.174 51.001 297.419 51.6005 296.489 51.6005C295.559 51.6005 294.803 51.001 294.803 50.2624V23.0665C294.803 11.8236 283.283 2.67623 269.123 2.67623H29.9344C15.7743 2.67623 4.25346 11.8236 4.25346 23.0665V88.2649C4.25346 99.5078 15.7743 108.655 29.9344 108.655H269.123C270.053 108.655 270.808 109.255 270.808 109.993C270.808 110.732 270.053 111.331 269.123 111.331Z" fill="#64C0E7"/>
<path d="M282.703 41.396L285.174 39.5708L296.486 49.2374L307.801 39.5708L310.272 41.396L296.486 53.1661L282.703 41.396Z" fill="#64C0E7"/>
</svg>
