<svg width="24" height="24" viewBox="0 0 24 24" fill="none" xmlns="http://www.w3.org/2000/svg">
<path d="M19.7605 3.51562C17.4965 1.24687 14.4824 0 11.2761 0C8.9699 0 6.72927 0.65625 4.79802 1.89844C2.91833 3.10781 1.41365 4.80469 0.448021 6.81562C0.166771 7.39687 0.415208 8.1 0.996458 8.38125C1.57771 8.6625 2.28083 8.41406 2.56208 7.83281C3.34021 6.21563 4.54958 4.84687 6.06365 3.87187C7.6199 2.87344 9.4199 2.34375 11.2761 2.34375C16.6011 2.34375 20.9324 6.675 20.9324 12C20.9324 17.325 16.6011 21.6562 11.2761 21.6562C9.4199 21.6562 7.6199 21.1266 6.06365 20.1328C4.54958 19.1625 3.34021 17.7891 2.56208 16.1719C2.28083 15.5906 1.5824 15.3422 0.996458 15.6234C0.415208 15.9047 0.166771 16.6031 0.448021 17.1891C1.41365 19.2 2.91365 20.9016 4.79802 22.1063C6.72927 23.3438 8.9699 24 11.2761 24C14.4824 24 17.4965 22.7531 19.7605 20.4844C22.0293 18.2156 23.2761 15.2063 23.2761 12C23.2761 8.79375 22.0293 5.77969 19.7605 3.51562Z" fill="white"/>
<path d="M5.81055 12.0001C5.81055 12.647 6.33555 13.172 6.98242 13.172H13.648L11.9184 14.9017C11.459 15.361 11.459 16.1017 11.9184 16.561C12.148 16.7907 12.448 16.9032 12.748 16.9032C13.048 16.9032 13.348 16.7907 13.5777 16.561L16.5262 13.6126C16.9574 13.1813 17.1918 12.6095 17.1918 12.0048C17.1918 11.4001 16.9527 10.8235 16.5262 10.397L13.5777 7.44854C13.1184 6.98916 12.3777 6.98916 11.9184 7.44854C11.459 7.90791 11.459 8.64854 11.9184 9.10791L13.648 10.8376H6.98242C6.33555 10.8282 5.81055 11.3532 5.81055 12.0001Z" fill="white"/>
</svg>
