<svg width="25" height="24" viewBox="0 0 25 24" fill="none" xmlns="http://www.w3.org/2000/svg">
<g clip-path="url(#clip0_263_941)">
<path d="M12.1245 24C8.9192 24 5.9057 22.7518 3.6392 20.4853C1.3727 18.2188 0.124512 15.2053 0.124512 12C0.124512 8.79469 1.37275 5.78123 3.6392 3.51469C5.90565 1.24814 8.9192 0 12.1245 0C15.3298 0 18.3433 1.24819 20.6098 3.51469C22.8763 5.78119 24.1245 8.79469 24.1245 12C24.1245 15.2053 22.8763 18.2188 20.6098 20.4853C18.3434 22.7519 15.3298 24 12.1245 24ZM12.1245 1.5C6.33479 1.5 1.62451 6.21028 1.62451 12C1.62451 17.7897 6.33479 22.5 12.1245 22.5C17.9142 22.5 22.6245 17.7897 22.6245 12C22.6245 6.21028 17.9142 1.5 12.1245 1.5Z" fill="white"/>
<path d="M12.1245 11.25C11.0906 11.25 10.2495 10.4089 10.2495 9.375C10.2495 8.34113 11.0906 7.5 12.1245 7.5C13.1584 7.5 13.9995 8.34113 13.9995 9.375C13.9995 9.78919 14.3353 10.125 14.7495 10.125C15.1637 10.125 15.4995 9.78919 15.4995 9.375C15.4995 7.77183 14.3755 6.42712 12.8745 6.08503V5.25C12.8745 4.83581 12.5387 4.5 12.1245 4.5C11.7103 4.5 11.3745 4.83581 11.3745 5.25V6.08503C9.87348 6.42712 8.74951 7.77183 8.74951 9.375C8.74951 11.236 10.2635 12.75 12.1245 12.75C13.1584 12.75 13.9995 13.5911 13.9995 14.625C13.9995 15.6589 13.1584 16.5 12.1245 16.5C11.0906 16.5 10.2495 15.6589 10.2495 14.625C10.2495 14.2108 9.91375 13.875 9.49951 13.875C9.08528 13.875 8.74951 14.2108 8.74951 14.625C8.74951 16.2282 9.87348 17.5729 11.3745 17.915V18.75C11.3745 19.1642 11.7103 19.5 12.1245 19.5C12.5387 19.5 12.8745 19.1642 12.8745 18.75V17.915C14.3755 17.5729 15.4995 16.2282 15.4995 14.625C15.4995 12.764 13.9855 11.25 12.1245 11.25Z" fill="white"/>
</g>
<defs>
<clipPath id="clip0_263_941">
<rect width="24" height="24" fill="white" transform="translate(0.124512)"/>
</clipPath>
</defs>
</svg>
