<svg width="25" height="24" viewBox="0 0 25 24" fill="none" xmlns="http://www.w3.org/2000/svg">
<g clip-path="url(#clip0_263_908)">
<path d="M7.2806 9.39111H5.19363C4.90563 9.39111 4.67188 9.62487 4.67188 9.91287V14.0868C4.67188 14.3748 4.90563 14.6085 5.19363 14.6085C5.48163 14.6085 5.71539 14.3748 5.71539 14.0868V10.4346H7.2806C7.5686 10.4346 7.80236 10.2008 7.80236 9.91282C7.80236 9.62482 7.5686 9.39111 7.2806 9.39111Z" fill="white"/>
<path d="M6.23709 11.478H5.19363C4.90563 11.478 4.67188 11.7118 4.67188 11.9998C4.67188 12.2878 4.90563 12.5215 5.19363 12.5215H6.23709C6.52509 12.5215 6.75885 12.2877 6.75885 11.9997C6.75885 11.7117 6.52509 11.478 6.23709 11.478Z" fill="white"/>
<path d="M12.498 0C5.88136 0 0.498047 5.38332 0.498047 12C0.498047 18.6166 5.88136 24 12.498 24C19.1147 24 24.498 18.6166 24.498 12C24.498 5.38332 19.1147 0 12.498 0ZM12.498 22.9565C6.45629 22.9565 1.54151 18.0417 1.54151 12C1.54151 5.95824 6.45629 1.04346 12.498 1.04346C18.5398 1.04346 23.4545 5.95824 23.4545 12C23.4545 18.0417 18.5398 22.9565 12.498 22.9565Z" fill="white"/>
<path d="M19.4154 6.45592C17.7197 4.34288 15.1987 3.13037 12.4982 3.13037C9.79765 3.13037 7.27662 4.34288 5.58095 6.45592C5.40042 6.68028 5.43593 7.00898 5.66132 7.18947C5.88568 7.37 6.21438 7.33449 6.39384 7.1091C7.89121 5.24336 10.1159 4.17378 12.4982 4.17378C14.8804 4.17378 17.1052 5.24336 18.6015 7.1091C18.7048 7.23745 18.8561 7.30422 19.0085 7.30422C19.1243 7.30422 19.2391 7.26665 19.335 7.18942C19.5604 7.00898 19.5959 6.68028 19.4154 6.45592Z" fill="white"/>
<path d="M18.909 17.3605C18.7024 17.1633 18.3705 17.1717 18.1723 17.3803C16.6749 18.9571 14.6599 19.8262 12.4978 19.8262C10.3357 19.8262 8.32081 18.957 6.82447 17.3803C6.62725 17.1696 6.29542 17.1633 6.08779 17.3605C5.87702 17.5588 5.86968 17.8896 6.06798 18.0983C7.76365 19.8858 10.0468 20.8697 12.4979 20.8697C14.949 20.8697 17.2321 19.8858 18.9288 18.0983C19.1271 17.8896 19.1187 17.5588 18.909 17.3605Z" fill="white"/>
<path d="M10.6134 12.508C11.3814 12.4089 11.9761 11.7504 11.9761 10.9563C11.9761 10.0934 11.2739 9.39111 10.4109 9.39111H9.36746C9.07946 9.39111 8.8457 9.62487 8.8457 9.91287V11.9956C8.8457 11.9977 8.8457 12.0009 8.8457 12.0029V14.0868C8.8457 14.3748 9.07946 14.6085 9.36746 14.6085C9.65546 14.6085 9.88921 14.3748 9.88921 14.0868V13.2593L11.085 14.4562C11.1873 14.5574 11.3208 14.6085 11.4544 14.6085C11.588 14.6085 11.7215 14.5574 11.8228 14.4551C12.0263 14.2516 12.0263 13.9208 11.8228 13.7174L10.6134 12.508ZM9.88921 11.4781V10.4346H10.411C10.6979 10.4346 10.9327 10.6684 10.9327 10.9564C10.9327 11.2444 10.6979 11.4781 10.411 11.4781H9.88921V11.4781Z" fill="white"/>
<path d="M15.6283 13.565H14.063V10.4346H15.6283C15.9163 10.4346 16.15 10.2008 16.15 9.91282C16.15 9.62482 15.9163 9.39111 15.6283 9.39111H13.5413C13.2533 9.39111 13.0195 9.62487 13.0195 9.91287V14.0868C13.0195 14.3748 13.2533 14.6085 13.5413 14.6085H15.6283C15.9163 14.6085 16.15 14.3748 16.15 14.0868C16.15 13.7988 15.9163 13.565 15.6283 13.565Z" fill="white"/>
<path d="M14.5852 11.478H13.5418C13.2538 11.478 13.02 11.7118 13.02 11.9998C13.02 12.2878 13.2538 12.5215 13.5418 12.5215H14.5852C14.8732 12.5215 15.107 12.2877 15.107 11.9997C15.107 11.7117 14.8732 11.478 14.5852 11.478Z" fill="white"/>
<path d="M19.8026 13.565H18.2374V10.4346H19.8026C20.0906 10.4346 20.3243 10.2008 20.3243 9.91282C20.3243 9.62482 20.0906 9.39111 19.8026 9.39111H17.7156C17.4276 9.39111 17.1938 9.62487 17.1938 9.91287V14.0868C17.1938 14.3748 17.4276 14.6085 17.7156 14.6085H19.8026C20.0906 14.6085 20.3243 14.3748 20.3243 14.0868C20.3243 13.7988 20.0906 13.565 19.8026 13.565Z" fill="white"/>
<path d="M18.7591 11.478H17.7156C17.4276 11.478 17.1938 11.7118 17.1938 11.9998C17.1938 12.2878 17.4276 12.5215 17.7156 12.5215H18.7591C19.0471 12.5215 19.2808 12.2877 19.2808 11.9997C19.2808 11.7117 19.0471 11.478 18.7591 11.478Z" fill="white"/>
</g>
<defs>
<clipPath id="clip0_263_908">
<rect width="24" height="24" fill="white" transform="translate(0.498047)"/>
</clipPath>
</defs>
</svg>
