<svg width="25" height="24" viewBox="0 0 25 24" fill="none" xmlns="http://www.w3.org/2000/svg">
<path fill-rule="evenodd" clip-rule="evenodd" d="M12.4612 2C17.8312 2 22.1992 6.368 22.1992 11.738C22.1992 14.2715 21.2269 16.5823 19.6358 18.3165L22.7666 21.4407C23.0596 21.7337 23.0606 22.2077 22.7676 22.5007C22.6216 22.6487 22.4286 22.7217 22.2366 22.7217C22.0456 22.7217 21.8536 22.6487 21.7066 22.5027L18.538 19.343C16.8712 20.6778 14.7578 21.477 12.4612 21.477C7.09117 21.477 2.72217 17.108 2.72217 11.738C2.72217 6.368 7.09117 2 12.4612 2ZM12.4612 3.5C7.91817 3.5 4.22217 7.195 4.22217 11.738C4.22217 16.281 7.91817 19.977 12.4612 19.977C17.0032 19.977 20.6992 16.281 20.6992 11.738C20.6992 7.195 17.0032 3.5 12.4612 3.5Z" fill="white"/>
</svg>
