<svg width="51" height="50" viewBox="0 0 51 50" fill="none" xmlns="http://www.w3.org/2000/svg">
<path d="M21.5937 21.5L22.9531 25H20.2344L21.5937 21.5Z" fill="#64C0E7"/>
<path d="M38 3.125H13C11.7568 3.125 10.5645 3.61886 9.68544 4.49794C8.80636 5.37701 8.3125 6.5693 8.3125 7.8125V42.1875C8.3125 43.4307 8.80636 44.623 9.68544 45.5021C10.5645 46.3811 11.7568 46.875 13 46.875H30.1875V39.0625C30.1875 37.8193 30.6814 36.627 31.5604 35.7479C32.4395 34.8689 33.6318 34.375 34.875 34.375H42.6875V7.8125C42.6875 6.5693 42.1936 5.37701 41.3146 4.49794C40.4355 3.61886 39.2432 3.125 38 3.125ZM27.625 32.7031C27.4467 32.777 27.2554 32.8142 27.0625 32.8125C26.7477 32.8116 26.4406 32.7156 26.1813 32.5372C25.922 32.3587 25.7227 32.1062 25.6094 31.8125L24.1719 28.125H19.0156L17.5781 31.8125C17.5156 32.0182 17.4113 32.2087 17.2718 32.3722C17.1323 32.5358 16.9605 32.6687 16.7673 32.7628C16.574 32.857 16.3634 32.9102 16.1487 32.9192C15.9339 32.9282 15.7196 32.8928 15.5191 32.8152C15.3187 32.7376 15.1364 32.6195 14.9836 32.4682C14.8309 32.317 14.711 32.1358 14.6315 31.9361C14.552 31.7364 14.5145 31.5224 14.5215 31.3076C14.5284 31.0928 14.5796 30.8817 14.6719 30.6875L20.1406 16.625C20.2558 16.3336 20.456 16.0835 20.7151 15.9073C20.9742 15.731 21.2804 15.6368 21.5938 15.6368C21.9071 15.6368 22.2133 15.731 22.4724 15.9073C22.7315 16.0835 22.9317 16.3336 23.0469 16.625L26.6719 26L28.5156 30.6875C28.6636 31.073 28.653 31.5014 28.4861 31.879C28.3193 32.2567 28.0097 32.553 27.625 32.7031ZM34.875 18.75H33.3125V20.3125C33.3125 20.7269 33.1479 21.1243 32.8549 21.4174C32.5618 21.7104 32.1644 21.875 31.75 21.875C31.3356 21.875 30.9382 21.7104 30.6451 21.4174C30.3521 21.1243 30.1875 20.7269 30.1875 20.3125V18.75H28.625C28.2106 18.75 27.8132 18.5854 27.5201 18.2924C27.2271 17.9993 27.0625 17.6019 27.0625 17.1875C27.0625 16.7731 27.2271 16.3757 27.5201 16.0826C27.8132 15.7896 28.2106 15.625 28.625 15.625H30.1875V14.0625C30.1875 13.6481 30.3521 13.2507 30.6451 12.9576C30.9382 12.6646 31.3356 12.5 31.75 12.5C32.1644 12.5 32.5618 12.6646 32.8549 12.9576C33.1479 13.2507 33.3125 13.6481 33.3125 14.0625V15.625H34.875C35.2894 15.625 35.6868 15.7896 35.9799 16.0826C36.2729 16.3757 36.4375 16.7731 36.4375 17.1875C36.4375 17.6019 36.2729 17.9993 35.9799 18.2924C35.6868 18.5854 35.2894 18.75 34.875 18.75ZM33.3125 39.0625V45.9688L41.7812 37.5H34.875C34.4606 37.5 34.0632 37.6646 33.7701 37.9576C33.4771 38.2507 33.3125 38.6481 33.3125 39.0625Z" fill="#64C0E7"/>
</svg>
