<svg width="51" height="50" viewBox="0 0 51 50" fill="none" xmlns="http://www.w3.org/2000/svg">
<g clip-path="url(#clip0_263_1024)">
<path d="M14.8715 18.203L17.2742 16.7973L16.9478 16.2394C16.8338 16.0445 16.629 15.936 16.4186 15.936C16.3135 15.936 16.2071 15.9631 16.1099 16.02L12.1582 18.3319C11.8663 18.5027 11.7681 18.878 11.9389 19.17L15.5656 25.3687C15.7365 25.6608 16.1118 25.759 16.4037 25.5881L16.7355 25.3939L14.1474 20.9702C13.5827 20.0055 13.9065 18.7676 14.8715 18.203Z" fill="#64C0E7"/>
<path d="M23.9999 23.5262L23.5933 22.8311L18.813 24.0637C18.3938 24.1717 18.0146 24.1871 17.6382 24.1449L18.9909 26.4568C19.1617 26.7489 19.5371 26.8471 19.829 26.6762L23.7807 24.3643C24.0726 24.1934 24.1707 23.8182 23.9999 23.5262Z" fill="#64C0E7"/>
<path d="M13.2298 0.39209C10.8806 0.39209 8.97607 2.29658 8.97607 4.6458C8.97627 6.99619 10.8806 8.88955 13.2122 8.89912C13.2181 8.90029 13.2239 8.90107 13.2298 8.90234C13.2356 8.90117 13.2415 8.90029 13.2474 8.89912C15.5786 8.88965 17.4835 6.99678 17.4835 4.6458C17.4835 2.29658 15.579 0.39209 13.2298 0.39209Z" fill="#64C0E7"/>
<path d="M25.3985 18.1624C22.7373 14.9021 21.5336 13.5364 21.1861 13.1265C19.8924 11.601 18.62 10.3203 16.6036 10.3203C13.7379 10.3203 12.7155 10.3203 9.85616 10.3203C7.77189 10.3203 6.25685 11.6535 5.35323 14.2827C5.24239 14.6056 5.12013 14.9575 4.98927 15.3318H4.98937C3.83653 18.6301 1.85275 24.1033 0.741027 27.1448C0.371691 28.1551 0.891124 29.2733 1.90128 29.6426C2.91105 30.0119 4.0297 29.4926 4.39903 28.4823C5.06964 26.6493 6.98614 21.3778 8.26935 17.7452C8.16466 18.6007 8.49523 16.7997 5.50323 32.2475C5.37364 32.9172 5.88702 33.5362 6.56534 33.5362C6.98468 33.5362 7.4879 33.5362 8.05148 33.5362C8.05148 34.1615 8.05148 47.1454 8.05148 47.6628C8.05148 48.9534 9.09777 49.9998 10.3884 49.9998C11.679 49.9998 12.7253 48.9534 12.7253 47.6628C12.7253 47.1454 12.7253 34.1614 12.7253 33.5362C13.0612 33.5362 13.3984 33.5362 13.7344 33.5362C13.7344 34.1615 13.7344 47.1454 13.7344 47.6628C13.7344 48.9534 14.7807 49.9998 16.0713 49.9998C17.3619 49.9998 18.4082 48.9534 18.4082 47.6628C18.4082 47.1454 18.4082 34.1614 18.4082 33.5362C18.9716 33.5362 19.4748 33.5362 19.8943 33.5362C20.5454 33.5362 21.0725 32.9523 20.9604 32.2757C20.9588 32.2662 20.9583 32.2568 20.9565 32.2474L20.1473 28.0691C19.9453 28.1351 19.7337 28.17 19.5199 28.17C18.2094 28.17 17.7454 27.1206 17.4471 26.6108L17.1152 26.805C16.148 27.3709 14.9086 27.0389 14.348 26.0806L10.7215 19.8817C10.1569 18.9169 10.4809 17.679 11.4459 17.1145L15.3976 14.8025C16.0275 14.434 16.8383 14.4184 17.5076 14.8458C18.2791 15.6461 20.1345 17.9038 20.4406 18.2718L17.5141 19.0265C16.4726 19.295 15.846 20.357 16.1147 21.3984C16.3831 22.4396 17.4446 23.0666 18.4866 22.7979L24.3761 21.2792C25.7512 20.9247 26.2951 19.2613 25.3985 18.1624Z" fill="#64C0E7"/>
<path d="M50.3044 14.1868C50.2914 11.6145 48.1879 9.52148 45.6154 9.52148H35.0899C33.061 9.52148 31.1898 10.7066 30.3226 12.541C30.0339 13.1515 27.6722 18.1477 27.3941 18.736C26.846 19.8944 27.5309 21.2534 28.768 21.5197L36.3887 23.1617C37.4574 23.3921 38.5124 22.7127 38.7429 21.6422C38.9734 20.5726 38.2932 19.5185 37.2234 19.288L32.0438 18.1719C34.1348 13.7488 34.0561 13.8579 34.0528 13.863C34.6041 12.9209 35.8388 12.5646 36.82 13.1388L37.1518 13.3329L37.4782 12.775C38.0396 11.8154 39.2793 11.4853 40.2455 12.0506L44.1971 14.3625C45.1622 14.9271 45.4863 16.1648 44.9216 17.1298L41.295 23.3285C40.8581 24.0753 39.9644 24.4892 39.0707 24.2714C38.216 24.9062 37.1085 25.1737 36.0062 24.9361L35.0477 24.7296C35.0477 24.7296 35.0173 27.0527 35.0173 47.5137C35.0173 48.8268 36.0818 49.8912 37.395 49.8912C38.7082 49.8912 39.7726 48.8268 39.7726 47.5137V28.5093H40.7991V47.5138C40.7991 48.8269 41.8635 49.8913 43.1767 49.8913C44.4899 49.8913 45.5543 48.8269 45.5543 47.5138L45.5552 14.2087C45.5552 13.9921 45.7305 13.8162 45.9472 13.8155C46.1639 13.8148 46.3402 13.9897 46.3415 14.2064C46.3415 14.2065 46.3415 14.2065 46.3415 14.2065L46.4146 28.7627C46.4202 29.8537 47.3062 30.7341 48.3958 30.7341C48.399 30.7341 48.4026 30.7341 48.4059 30.7341C49.5002 30.7285 50.3828 29.8371 50.3773 28.7428L50.3044 14.1868Z" fill="#64C0E7"/>
<path d="M40.2861 8.21289C42.5541 8.21289 44.3926 6.37437 44.3926 4.10645C44.3926 1.83852 42.5541 0 40.2861 0C38.0182 0 36.1797 1.83852 36.1797 4.10645C36.1797 6.37437 38.0182 8.21289 40.2861 8.21289Z" fill="#64C0E7"/>
<path d="M43.4853 15.5799L39.5336 13.268C39.2416 13.0972 38.8664 13.1954 38.6955 13.4874L38.3691 14.0453L40.7718 15.451C41.7368 16.0157 42.0607 17.2534 41.4962 18.2183L40.4189 20.0595C40.5953 20.6043 40.6506 21.1954 40.5592 21.7942L43.7046 16.418C43.8754 16.126 43.7771 15.7508 43.4853 15.5799Z" fill="#64C0E7"/>
<path d="M40.0597 16.6678L36.108 14.3559C35.816 14.1852 35.4407 14.2832 35.2699 14.5753L34.0049 16.7374L37.6057 17.5132C38.4054 17.6855 39.0907 18.0987 39.6039 18.6596L40.2789 17.5059C40.4499 17.2138 40.3516 16.8386 40.0597 16.6678Z" fill="#64C0E7"/>
</g>
<defs>
<clipPath id="clip0_263_1024">
<rect width="50" height="50" fill="white" transform="translate(0.5)"/>
</clipPath>
</defs>
</svg>
