<svg width="51" height="50" viewBox="0 0 51 50" fill="none" xmlns="http://www.w3.org/2000/svg">
<path fill-rule="evenodd" clip-rule="evenodd" d="M38.9748 36.8968H41.646V37.7223H38.9748V36.8968ZM38.9748 35.2409H42.8303V36.0664H38.9748V35.2409ZM38.9748 33.59H42.8303V34.4155H38.9748V33.59ZM37.3035 30.8112V41.5778H44.4812V30.8112H37.3035ZM29.0593 30.8112V41.5778H36.2371V30.8112H29.0593ZM27.4084 29.186H46.1526V43.2287H38.9748C38.9735 43.4481 38.8854 43.658 38.7298 43.8127C38.5742 43.9673 38.3637 44.0542 38.1443 44.0542H35.3911C35.1757 44.0489 34.971 43.9595 34.8206 43.8053C34.6702 43.6511 34.5861 43.4442 34.5862 43.2287H27.4084V29.186ZM27.9211 23.0337C30.215 23.042 32.4953 23.3875 34.6887 24.0591C37.417 24.7791 39.9893 25.9957 42.2766 27.648H25.8704V39.4399H12.6889C13.5603 38.993 14.258 38.2686 14.6721 37.3811C15.0862 36.4936 15.1929 35.4935 14.9756 34.5386C14.7623 33.7348 14.3228 33.009 13.7094 32.4474C13.096 31.8858 12.3344 31.5118 11.5149 31.37V31.2368C11.5282 30.6025 11.6822 29.9791 11.966 29.4116C12.2497 28.8441 12.656 28.3468 13.1556 27.9557C15.5818 26.2134 18.2862 24.8958 21.1536 24.0591C23.3539 23.4181 25.6297 23.0732 27.9211 23.0337ZM4.71391 18.0169C4.84312 17.9741 4.98403 17.9844 5.10565 18.0455C5.22728 18.1066 5.31967 18.2135 5.3625 18.3427L10.0076 32.3597C10.4411 32.2604 10.8902 32.249 11.3282 32.326C11.7663 32.403 12.1845 32.5669 12.5582 32.808C12.932 33.0491 13.2537 33.3626 13.5044 33.73C13.7551 34.0974 13.9297 34.5113 14.018 34.9472C14.1063 35.3831 14.1064 35.8323 14.0184 36.2683C13.9304 36.7043 13.756 37.1182 13.5056 37.4858C13.2551 37.8533 12.9336 38.167 12.56 38.4084C12.1864 38.6498 11.7683 38.8139 11.3303 38.8912C9.40769 39.3682 8.34642 39.6349 7.53635 36.4049C6.83394 33.5747 7.55686 33.0159 9.03342 32.6007L4.38838 18.6654C4.36717 18.6015 4.35877 18.534 4.36365 18.4667C4.36854 18.3995 4.38661 18.334 4.41684 18.2737C4.44707 18.2135 4.48887 18.1598 4.53985 18.1158C4.59083 18.0717 4.64995 18.0381 4.71391 18.0169ZM27.9211 4.57666C29.5436 4.57666 31.1295 5.05777 32.4785 5.95914C33.8275 6.86051 34.879 8.14166 35.4998 9.64058C36.1207 11.1395 36.2832 12.7889 35.9666 14.3801C35.6501 15.9714 34.8688 17.433 33.7216 18.5803C32.5744 19.7275 31.1127 20.5088 29.5215 20.8253C27.9302 21.1418 26.2809 20.9794 24.7819 20.3585C23.283 19.7376 22.0019 18.6862 21.1005 17.3372C20.1991 15.9882 19.718 14.4022 19.718 12.7798C19.718 10.6042 20.5823 8.51768 22.1206 6.9793C23.659 5.44092 25.7455 4.57666 27.9211 4.57666Z" fill="#64C0E7"/>
</svg>
