<svg width="51" height="50" viewBox="0 0 51 50" fill="none" xmlns="http://www.w3.org/2000/svg">
<path d="M17.6875 14.0625C14.2413 14.0625 11.4375 16.8655 11.4375 20.3125C11.4375 23.7595 14.2413 26.5625 17.6875 26.5625C21.1337 26.5625 23.9375 23.7595 23.9375 20.3125C23.9375 16.8655 21.1337 14.0625 17.6875 14.0625ZM15.3438 24.794V15.831L22.0668 20.3125L15.3438 24.794ZM42.6875 3.125H8.3125C4.8663 3.125 2.0625 5.92804 2.0625 9.375V31.25C2.0625 34.697 4.8663 37.5 8.3125 37.5H42.6875C46.1337 37.5 48.9375 34.697 48.9375 31.25V9.375C48.9375 5.92804 46.1337 3.125 42.6875 3.125ZM17.6875 29.6875C12.5178 29.6875 8.3125 25.4822 8.3125 20.3125C8.3125 15.1428 12.5178 10.9375 17.6875 10.9375C22.8572 10.9375 27.0625 15.1428 27.0625 20.3125C27.0625 25.4822 22.8572 29.6875 17.6875 29.6875ZM42.6875 28.125H30.1875V25H42.6875V28.125ZM42.6875 21.875H30.1875V18.75H42.6875V21.875ZM42.6875 15.625H30.1875V12.5H42.6875V15.625ZM30.1875 43.75V40.625H20.8125V43.75H14.5625V46.875H36.4375V43.75H30.1875Z" fill="#64C0E7"/>
</svg>
